<svg width="28" height="23" viewBox="0 0 28 23" fill="none" xmlns="http://www.w3.org/2000/svg">
<path d="M25.5656 4.27936C25.4238 3.64514 25.1443 3.0663 24.755 2.60081C24.3657 2.13533 23.8802 1.79954 23.3473 1.62708C21.3907 1 13.545 1 13.545 1C13.545 1 5.69931 1 3.74274 1.62708C3.20979 1.79954 2.72435 2.13533 2.33502 2.60081C1.9457 3.0663 1.66615 3.64514 1.5244 4.27936C1 6.61861 1 11.5 1 11.5C1 11.5 1 16.3814 1.5244 18.7212C1.66615 19.3554 1.9457 19.9342 2.33502 20.3997C2.72435 20.8652 3.20979 21.201 3.74274 21.3734C5.69931 22 13.545 22 13.545 22C13.545 22 21.3907 22 23.3473 21.3734C23.8802 21.201 24.3657 20.8652 24.755 20.3997C25.1443 19.9342 25.4238 19.3554 25.5656 18.7212C26.09 16.3814 26.09 11.5 26.09 11.5C26.09 11.5 26.09 6.61861 25.5656 4.27936Z" fill="#EA5A47"/>
<path d="M10.9791 15.9316L17.5366 11.5001L10.9791 7.06848V15.9316Z" fill="white"/>
<path d="M25.5656 4.27936C25.4238 3.64514 25.1443 3.0663 24.755 2.60081C24.3657 2.13533 23.8802 1.79954 23.3473 1.62708C21.3907 1 13.545 1 13.545 1C13.545 1 5.69931 1 3.74274 1.62708C3.20979 1.79954 2.72435 2.13533 2.33502 2.60081C1.9457 3.0663 1.66615 3.64514 1.5244 4.27936C1 6.61861 1 11.5 1 11.5C1 11.5 1 16.3814 1.5244 18.7212C1.66615 19.3554 1.9457 19.9342 2.33502 20.3997C2.72435 20.8652 3.20979 21.201 3.74274 21.3734C5.69931 22 13.545 22 13.545 22C13.545 22 21.3907 22 23.3473 21.3734C23.8802 21.201 24.3657 20.8652 24.755 20.3997C25.1443 19.9342 25.4238 19.3554 25.5656 18.7212C26.09 16.3814 26.09 11.5 26.09 11.5C26.09 11.5 26.09 6.61861 25.5656 4.27936Z" stroke="black" stroke-width="2" stroke-miterlimit="10"/>
<path d="M10.9791 15.9316L17.5366 11.5001L10.9791 7.06848V15.9316Z" stroke="black" stroke-width="2" stroke-miterlimit="10" stroke-linecap="round" stroke-linejoin="round"/>
</svg>
